<?xml version="1.0" standalone="no"?>
<!DOCTYPE svg PUBLIC "-//W3C//DTD SVG 20010904//EN"
 "http://www.w3.org/TR/2001/REC-SVG-20010904/DTD/svg10.dtd">
<svg version="1.0" xmlns="http://www.w3.org/2000/svg"
 width="256.000000pt" height="256.000000pt" viewBox="0 0 256.000000 256.000000"
 preserveAspectRatio="xMidYMid meet">
<metadata>
Created by potrace 1.14, written by Peter Selinger 2001-2017
</metadata>
<g transform="translate(0.000000,256.000000) scale(0.100000,-0.100000)"
fill="#000000" stroke="none">
<path d="M0 1280 l0 -1280 1280 0 1280 0 0 518 c0 505 0 517 -20 530 -18 11
-19 10 -17 -9 2 -18 -19 -32 -125 -88 -149 -79 -189 -113 -243 -206 -48 -83
-231 -273 -321 -334 -82 -55 -238 -115 -364 -141 -202 -41 -460 -11 -625 73
-53 26 -161 94 -205 127 -24 19 -53 29 -91 33 l-56 7 -6 -90 c-4 -49 -10 -114
-13 -145 l-7 -55 -46 0 c-75 0 -74 -3 -53 167 l18 151 -23 26 c-40 47 -48 100
-29 193 l16 81 -29 64 c-94 203 -101 499 -17 720 53 142 122 257 211 349 l46
49 10 102 c13 148 19 181 38 195 21 16 27 16 45 -3 12 -12 16 -37 16 -106 l0
-90 33 21 c62 41 185 100 253 121 38 12 75 23 82 26 7 2 10 9 6 15 -5 8 -9 8
-14 -1 -5 -8 -9 -7 -14 5 -3 9 -10 13 -16 10 -6 -4 -7 1 -3 11 5 14 3 16 -11
11 -21 -8 -33 18 -17 37 8 10 9 16 1 21 -6 3 -8 10 -5 15 3 5 -4 7 -16 5 -15
-3 -19 0 -16 10 3 7 -5 20 -19 29 -13 9 -24 13 -24 9 0 -5 -5 -1 -10 7 -12 18
-12 2 0 -25 8 -18 9 -18 9 -2 1 10 6 15 11 12 8 -5 7 -12 -2 -23 -10 -14 -10
-15 2 -4 16 14 34 16 26 3 -3 -5 0 -21 8 -36 12 -23 15 -24 18 -8 2 11 6 14
11 7 4 -7 0 -17 -7 -23 -11 -10 -18 -6 -32 18 -10 16 -21 28 -25 25 -12 -7
-47 49 -43 69 1 11 0 16 -3 13 -3 -3 -12 2 -20 12 -13 15 -13 15 -3 -5 6 -13
8 -23 4 -23 -4 0 1 -9 11 -20 10 -11 15 -20 11 -20 -12 0 -36 28 -36 42 0 8
-7 23 -16 34 -14 18 -15 18 -4 -4 7 -13 9 -26 6 -30 -3 -3 -6 0 -6 7 0 7 -5 9
-10 6 -6 -4 -10 -3 -9 2 3 17 -1 33 -8 32 -21 -3 -33 2 -33 16 0 13 -48 15
-370 15 l-370 0 0 -1280z m134 185 c-4 -8 -11 -12 -16 -9 -6 4 -5 10 3 15 19
12 19 11 13 -6z m26 -19 c0 -2 -8 -10 -17 -17 -16 -13 -17 -12 -4 4 13 16 21
21 21 13z m2286 -834 c-5 -9 -21 -337 -21 -449 l0 -83 -62 0 c-35 0 -63 2 -63
5 0 3 9 23 20 45 25 49 25 50 -1 50 -20 0 -19 3 10 57 35 63 38 78 16 69 -20
-7 -20 -5 20 86 24 54 32 83 25 88 -7 4 -1 29 19 73 17 37 33 67 36 67 3 0 4
-3 1 -8z m-359 -214 c-4 -51 -9 -117 -10 -145 -1 -29 -6 -53 -12 -53 -5 0 -3
-5 5 -10 8 -5 10 -10 4 -10 -6 0 -10 -17 -9 -40 1 -21 -1 -37 -5 -35 -4 3 -13
-2 -19 -9 -8 -9 -8 -17 -2 -20 5 -3 12 -1 14 4 3 6 4 5 3 -2 -2 -7 0 -20 4
-28 7 -13 -1 -15 -50 -15 -51 0 -57 2 -49 17 5 9 14 20 21 24 6 4 8 3 5 -3 -4
-6 -1 -16 6 -22 11 -8 13 -3 12 25 -2 35 8 53 20 34 4 -6 11 -8 16 -5 5 4 2
13 -6 22 -9 8 -19 13 -22 9 -3 -3 -12 -1 -20 5 -11 10 -9 19 12 55 29 50 30
54 10 54 -20 0 -20 -1 23 86 24 51 33 78 25 81 -8 3 -5 15 9 39 11 19 21 34
22 34 1 0 -2 -42 -7 -92z m-292 -118 c3 -5 1 -10 -4 -10 -6 0 -11 5 -11 10 0
6 2 10 4 10 3 0 8 -4 11 -10z"/>
<path d="M2004 169 c-9 -10 -11 -19 -5 -23 5 -4 12 -2 16 3 3 6 12 8 20 5 8
-4 13 -10 10 -14 -3 -5 -1 -11 4 -14 5 -4 8 2 7 11 -2 9 -8 19 -15 21 -8 3 -9
8 -2 16 17 20 -16 16 -35 -5z m26 7 c0 -2 -8 -10 -17 -17 -16 -13 -17 -12 -4
4 13 16 21 21 21 13z"/>
<path d="M2014 81 c-1 -20 3 -27 18 -28 18 -2 19 0 5 15 -9 9 -16 21 -15 25 0
23 -7 12 -8 -12z"/>
<path d="M980 2365 c-7 -9 -10 -18 -6 -22 3 -3 6 0 6 8 1 8 11 2 26 -16 16
-19 22 -22 15 -9 -6 12 -7 25 -3 29 4 3 0 5 -8 3 -8 -1 -14 3 -12 10 3 16 -3
15 -18 -3z"/>
<path d="M1030 2335 c0 -2 6 -8 13 -14 10 -8 14 -7 14 2 0 8 -6 14 -14 14 -7
0 -13 -1 -13 -2z"/>
<path d="M1074 2312 c3 -5 0 -13 -6 -15 -9 -4 -10 -6 -1 -6 17 -1 25 16 12 25
-7 4 -9 3 -5 -4z"/>
<path d="M564 1942 c-22 -191 -38 -355 -34 -366 5 -16 10 -13 30 20 20 33 26
67 41 214 18 178 25 480 12 480 -5 0 -26 -156 -49 -348z"/>
<path d="M1103 2275 c-132 -24 -295 -89 -383 -153 -48 -36 -59 -46 -37 -39 9
4 17 2 17 -3 0 -6 5 -10 11 -10 5 0 7 6 3 13 -6 9 -5 9 8 0 8 -7 19 -9 23 -5
5 4 5 1 1 -6 -4 -7 -11 -10 -15 -8 -4 3 -8 -1 -8 -9 0 -8 5 -11 11 -7 21 13
34 10 39 -10 4 -14 10 -17 19 -12 19 12 39 14 32 3 -5 -8 10 -13 29 -10 5 1 6
-3 2 -9 -10 -17 5 -33 20 -20 9 7 16 6 26 -7 12 -15 12 -16 -1 -8 -13 8 -13 6
-1 -8 7 -9 17 -14 22 -11 14 8 11 16 -3 8 -7 -4 -9 -3 -5 1 4 5 14 10 22 11
22 3 5 -26 -21 -36 -19 -8 -23 -19 -29 -75 -4 -36 -5 -84 -2 -106 4 -29 1 -42
-9 -46 -11 -4 -11 -9 1 -34 14 -26 14 -32 -5 -69 -11 -22 -25 -40 -31 -40 -6
0 -9 -8 -8 -17 1 -10 -6 -45 -16 -78 -10 -33 -21 -87 -24 -120 -5 -53 -10 -62
-39 -81 l-32 -22 36 -22 36 -23 26 20 c22 17 28 30 33 79 3 32 14 83 23 112
10 29 16 62 13 73 -3 12 2 23 14 29 10 6 26 24 34 39 13 26 13 33 0 57 -9 19
-11 32 -4 40 5 6 11 52 13 102 4 93 16 132 41 132 8 0 22 15 31 33 58 113 157
223 238 264 78 41 144 37 276 -16 126 -51 192 -91 209 -129 12 -26 11 -29 -38
-72 -64 -56 -65 -75 -6 -101 66 -29 68 -40 40 -158 l-25 -102 41 -52 c23 -29
46 -52 52 -52 6 0 11 -10 12 -23 1 -12 8 -28 15 -35 10 -10 10 -8 1 11 -14 26
3 31 19 5 10 -16 11 -15 7 5 -3 12 -1 20 4 16 5 -3 9 -11 9 -19 0 -8 5 -17 12
-21 8 -5 9 -1 5 12 -7 19 -7 19 8 0 8 -10 12 -23 8 -29 -3 -6 -1 -7 6 -3 6 4
9 13 5 19 -3 7 4 1 16 -13 18 -21 21 -22 15 -5 -4 15 -3 17 5 9 6 -6 12 -21
13 -32 1 -20 2 -20 21 -4 11 9 16 12 13 6 -4 -7 0 -15 9 -18 8 -3 12 -10 9
-16 -3 -6 1 -7 10 -4 14 6 14 9 -2 28 -14 16 -12 16 10 -3 27 -24 36 -38 18
-26 -5 3 -12 1 -15 -4 -7 -11 13 -9 33 3 9 6 12 5 8 -1 -4 -6 2 -18 13 -28 11
-10 17 -23 13 -29 -4 -6 0 -6 9 1 8 7 18 10 22 6 4 -4 5 1 1 12 -3 11 1 7 9
-10 12 -24 15 -26 16 -10 1 18 2 18 10 -2 10 -24 21 -32 16 -10 -1 6 -1 9 1 4
3 -4 9 -4 15 -1 5 4 4 -4 -2 -17 l-13 -24 23 20 c13 11 20 14 15 6 -6 -11 -4
-13 8 -8 12 4 14 2 10 -11 -6 -14 -4 -15 8 -5 12 10 15 7 17 -14 1 -15 5 -29
8 -32 4 -3 4 53 1 124 -5 146 -32 254 -93 384 -113 240 -334 435 -591 520
-145 49 -342 63 -490 36z m-310 -230 c-3 -9 -8 -14 -10 -11 -3 3 -2 9 2 15 9
16 15 13 8 -4z m1327 -721 c0 -3 -7 -1 -15 6 -8 7 -15 17 -15 22 0 5 7 3 15
-6 8 -8 15 -18 15 -22z"/>
<path d="M1262 2178 c-60 -29 -145 -118 -204 -215 -28 -45 -59 -85 -68 -88
-22 -7 -30 -46 -30 -145 0 -50 -4 -80 -11 -82 -18 -6 17 -66 49 -82 31 -16 58
-9 86 23 13 15 31 21 59 21 33 0 48 -7 87 -44 72 -67 136 -77 207 -31 14 9 26
15 27 13 1 -2 13 -39 26 -83 35 -113 34 -190 -3 -238 -41 -54 -58 -60 -119
-43 -29 8 -69 17 -89 20 -33 6 -35 9 -31 36 6 44 -95 340 -116 340 -5 0 -30
-18 -55 -41 -39 -33 -50 -38 -66 -30 -24 13 -81 14 -100 2 -23 -15 -2 -30 39
-28 21 1 42 -1 45 -4 3 -3 -11 -36 -30 -73 -25 -48 -35 -81 -35 -112 0 -39 -3
-46 -27 -55 -19 -7 -28 -6 -34 2 -5 8 -10 5 -18 -8 -5 -11 -24 -26 -41 -33
-23 -9 -29 -17 -24 -29 6 -14 11 -71 17 -201 l2 -35 -87 -5 c-90 -5 -110 -12
-90 -32 28 -28 5 -108 -31 -108 -8 0 -12 -24 -12 -73 0 -83 -31 -161 -68 -173
-21 -7 -22 -7 -2 -15 11 -4 39 -8 62 -8 23 -1 45 -5 48 -11 3 -5 38 -10 76
-10 l70 0 -7 -48 -6 -48 90 -42 c275 -128 617 -120 895 19 74 37 203 140 270
215 42 46 49 61 54 107 12 114 -36 227 -125 294 -44 33 -48 42 -10 22 11 -6
22 -8 25 -6 8 9 -39 91 -73 127 -32 34 -33 36 -22 78 20 81 -34 216 -133 334
l-40 48 25 105 c14 57 23 111 20 119 -3 8 -21 20 -39 26 -18 6 -40 19 -50 30
-24 27 -7 66 46 102 21 15 39 34 39 41 0 54 -261 178 -373 177 -31 -1 -69 -9
-95 -22z m519 -748 c36 -20 21 -178 -22 -221 -38 -38 -99 -12 -99 42 l0 28 31
-17 c29 -17 31 -16 50 7 23 28 26 93 4 111 -9 7 -27 10 -44 7 -25 -5 -28 -3
-24 13 8 31 69 48 104 30z m-227 -301 c14 -11 33 -35 42 -52 16 -31 15 -31
-16 5 -17 21 -41 45 -53 53 -12 8 -17 15 -11 15 6 0 23 -9 38 -21z"/>
<path d="M803 2015 c0 -8 4 -12 9 -9 5 3 6 10 3 15 -9 13 -12 11 -12 -6z"/>
<path d="M547 1983 c-4 -3 -6 -25 -6 -47 l2 -41 7 45 c8 48 7 54 -3 43z"/>
<path d="M502 1935 c-11 -14 -23 -47 -26 -73 -3 -26 -15 -123 -26 -217 -26
-216 -69 -559 -77 -607 -3 -24 -14 -43 -29 -53 -29 -19 -30 -39 -5 -96 l19
-42 15 34 c8 19 25 43 38 54 22 19 26 35 42 190 10 94 23 204 29 246 13 86 8
109 -22 109 -29 0 -25 14 9 26 35 14 42 45 46 209 1 66 6 148 10 183 4 34 5
62 2 62 -3 0 -14 -11 -25 -25z"/>
<path d="M661 1607 c-9 -11 -8 -17 4 -27 12 -10 16 -9 21 5 9 23 -10 40 -25
22z"/>
<path d="M1254 1480 c-27 -11 -35 -22 -25 -38 6 -9 15 -8 40 4 37 18 84 13
113 -13 15 -13 21 -14 31 -4 9 10 6 17 -16 37 -22 18 -39 24 -75 23 -26 0 -57
-4 -68 -9z"/>
<path d="M487 1288 c-20 -182 -20 -195 -2 -143 8 22 25 50 39 61 30 27 36 92
12 146 -9 21 -16 49 -16 63 0 14 -4 25 -8 25 -5 0 -16 -69 -25 -152z"/>
<path d="M2312 1262 l-2 -42 25 16 c29 19 30 20 9 28 -8 3 -12 2 -9 -3 3 -5 1
-12 -4 -15 -5 -4 -12 8 -14 26 -3 29 -4 27 -5 -10z"/>
<path d="M2353 1221 c-29 -20 -52 -40 -53 -44 0 -5 24 -37 54 -70 l54 -62 -24
-30 c-91 -110 -90 -109 -63 -95 96 51 179 104 179 115 0 13 -50 133 -70 167
-5 10 -10 24 -10 32 0 26 -14 23 -67 -13z"/>
<path d="M2495 1130 c-3 -5 0 -21 8 -35 l13 -26 12 25 c10 22 9 24 -9 21 -15
-3 -19 0 -15 10 6 17 0 20 -9 5z"/>
<path d="M2290 1107 c0 -32 -27 -130 -55 -201 l-24 -61 73 77 c39 42 78 89 86
103 13 24 11 28 -25 65 -45 46 -55 49 -55 17z"/>
<path d="M457 1039 c-13 -104 -11 -109 28 -109 27 0 35 4 35 19 0 10 3 39 6
65 7 44 6 46 -19 46 -14 0 -30 7 -35 16 -7 12 -11 2 -15 -37z"/>
<path d="M730 1015 c0 -25 -1 -25 -84 -25 -67 0 -88 -4 -102 -17 -16 -16 -15
-18 12 -29 18 -7 68 -9 132 -6 l102 4 0 33 c0 49 -9 65 -36 65 -19 0 -24 -5
-24 -25z"/>
<path d="M320 1009 c-7 -11 -10 -23 -7 -25 2 -2 9 7 15 21 14 30 7 33 -8 4z"/>
<path d="M400 543 c-1 -5 -9 -73 -19 -153 -10 -80 -17 -147 -15 -148 1 -2 20
-6 43 -9 36 -5 40 -3 45 18 5 22 26 240 26 266 0 17 -80 42 -80 26z"/>
<path d="M696 451 c40 -28 54 -26 54 12 0 14 -9 17 -46 17 l-47 0 39 -29z"/>
</g>
</svg>
